<COLLADA xmlns="http://www.collada.org/2005/11/COLLADASchema" version="1.4.1">
  <asset>
    <created>2026-05-30T15:26:01.916499</created>
    <modified>2026-05-30T15:26:01.916509</modified>
    <up_axis>Y_UP</up_axis>
  </asset>
  <library_effects>
    <effect id="3aadc60a141141b28dfc98543ac576a2" name="3aadc60a141141b28dfc98543ac576a2">
      <profile_COMMON>
        <technique sid="common">
          <phong>
            <emission>
              <color>0.0 0.0 0.0 1.0</color>
            </emission>
            <ambient>
              <color>0.0 0.0 0.0 1.0</color>
            </ambient>
            <diffuse>
              <color>0.4 0.4 0.4 1.0</color>
            </diffuse>
            <specular>
              <color>0.0 0.0 0.0 1.0</color>
            </specular>
            <shininess>
              <float>0.0</float>
            </shininess>
            <reflective>
              <color>0.0 0.0 0.0 1.0</color>
            </reflective>
            <reflectivity>
              <float>0.0</float>
            </reflectivity>
            <transparent>
              <color>0.0 0.0 0.0 1.0</color>
            </transparent>
            <transparency>
              <float>1.0</float>
            </transparency>
          </phong>
        </technique>
        <extra>
          <technique profile="GOOGLEEARTH">
            <double_sided>0</double_sided>
          </technique>
        </extra>
      </profile_COMMON>
    </effect>
  </library_effects>
  <library_geometries>
    <geometry id="969a94b4f94a48b9afca77b519eaecdf" name="4a7f85115f1a48a7acf2f2e16fb03131">
      <mesh>
        <source id="verts-array">
          <float_array count="360" id="verts-array-array">-0.00169102 -0.009855986 -9.495349e-11 -0.00169102 -0.009855986 0.002 -0.004184316 -0.009082483 0.002 -0.004184316 -0.009082483 -9.495338e-11 -0.006392459 -0.007690024 0.002 -0.006392459 -0.007690024 -9.495327e-11 -0.008164966 -0.005773502 0.002 -0.008164966 -0.005773502 -9.495338e-11 -0.009855986 0.00169102 -9.495338e-11 -0.009855986 0.00169102 0.002 -0.009082483 0.004184316 0.002 -0.009082483 0.004184316 -9.495338e-11 -0.007690024 0.006392459 0.002 -0.007690024 0.006392459 -9.495327e-11 -0.005773502 0.008164966 0.002 -0.005773502 0.008164966 -9.495338e-11 0.00169102 0.009855986 -9.495338e-11 0.00169102 0.009855986 0.002 0.004184316 0.009082483 0.002 0.004184316 0.009082483 -9.495327e-11 0.006392459 0.007690024 0.002 0.006392459 0.007690024 -9.495338e-11 0.008164966 0.005773502 0.002 0.008164966 0.005773502 -9.495349e-11 0.009855986 -0.00169102 -9.495338e-11 0.007490549 -0.001285175 -9.495349e-11 0.0003851539 0.02999753 -9.495338e-11 0.005073059 0.02956796 -9.495327e-11 -0.0003851539 -0.02999753 -9.495327e-11 -0.005073059 -0.02956796 -9.495349e-11 -0.001092433 0.007521076 -9.495349e-11 -0.003363106 0.006815388 -9.495338e-11 -0.0244949 -0.01732051 -9.495349e-11 -0.02690285 -0.01327542 -9.495349e-11 0.001092433 -0.007521076 -9.495338e-11 0.003363106 -0.006815388 -9.495327e-11 0.02999753 -0.0003851539 -9.495338e-11 0.02956796 -0.005073059 -9.495338e-11 -0.02864836 -0.008903443 -9.495327e-11 -0.02968846 -0.004312235 -9.495327e-11 -0.02999753 0.0003851539 -9.495327e-11 -0.02956796 0.005073059 -9.495327e-11 -0.01732051 0.0244949 -9.495338e-11 -0.01327542 0.02690285 -9.495338e-11 -0.008903443 0.02864836 -9.495327e-11 -0.004312235 0.02968846 -9.495349e-11 0.0244949 0.01732051 -9.495349e-11 0.02690285 0.01327542 -9.495338e-11 0.02864836 0.008903443 -9.495338e-11 0.02968846 0.004312235 -9.495338e-11 0.01732051 -0.0244949 -9.495327e-11 0.01327542 -0.02690285 -9.495327e-11 0.005773502 -0.008164966 -9.495327e-11 0.008903443 -0.02864836 -9.495349e-11 0.004312235 -0.02968846 -9.495338e-11 0.006726794 -0.003536981 -9.495327e-11 0.009082483 -0.004184316 -9.495327e-11 0.005304575 -0.005442563 -9.495349e-11 0.007690024 -0.006392459 -9.495349e-11 -0.007490549 0.001285175 -9.495338e-11 -0.006726794 0.003536981 -9.495338e-11 -0.005304575 0.005442563 -9.495338e-11 0.007521076 0.001092433 -9.495349e-11 0.006815388 0.003363106 -9.495327e-11 0.005442563 0.005304575 -9.495349e-11 0.003536981 0.006726794 -9.495327e-11 0.001285175 0.007490549 -9.495327e-11 -0.003536981 -0.006726794 -9.495338e-11 -0.001285175 -0.007490549 -9.495338e-11 -0.007521076 -0.001092433 -9.495338e-11 -0.006815388 -0.003363106 -9.495327e-11 -0.005442563 -0.005304575 -9.495338e-11 -0.02956796 0.005073059 0.002 -0.02999753 0.0003851539 0.002 -0.007521076 -0.001092433 0.002 -0.007490549 0.001285175 0.002 0.01327542 -0.02690285 0.002 0.01732051 -0.0244949 0.002 0.005773502 -0.008164966 0.002 -0.001092433 0.007521076 0.002 0.001285175 0.007490549 0.002 -0.02968846 -0.004312235 0.002 -0.0244949 -0.01732051 0.002 -0.02690285 -0.01327542 0.002 -0.02864836 -0.008903443 0.002 0.02690285 0.01327542 0.002 0.0244949 0.01732051 0.002 0.006726794 -0.003536981 0.002 0.005304575 -0.005442563 0.002 0.003363106 -0.006815388 0.002 0.001092433 -0.007521076 0.002 -0.001285175 -0.007490549 0.002 -0.003536981 -0.006726794 0.002 -0.005442563 -0.005304575 0.002 -0.006815388 -0.003363106 0.002 -0.006726794 0.003536981 0.002 -0.005304575 0.005442563 0.002 -0.005073059 -0.02956796 0.002 -0.0003851539 -0.02999753 0.002 0.004312235 -0.02968846 0.002 0.008903443 -0.02864836 0.002 0.007490549 -0.001285175 0.002 0.007690024 -0.006392459 0.002 0.009082483 -0.004184316 0.002 0.009855986 -0.00169102 0.002 0.007521076 0.001092433 0.002 0.006815388 0.003363106 0.002 -0.01732051 0.0244949 0.002 -0.01327542 0.02690285 0.002 -0.008903443 0.02864836 0.002 0.02956796 -0.005073059 0.002 0.02999753 -0.0003851539 0.002 0.02968846 0.004312235 0.002 0.02864836 0.008903443 0.002 0.005073059 0.02956796 0.002 0.0003851539 0.02999753 0.002 -0.004312235 0.02968846 0.002 -0.003363106 0.006815388 0.002 0.005442563 0.005304575 0.002 0.003536981 0.006726794 0.002</float_array>
          <technique_common>
            <accessor count="120" source="#verts-array-array" stride="3">
              <param type="float" name="X"/>
              <param type="float" name="Y"/>
              <param type="float" name="Z"/>
            </accessor>
          </technique_common>
        </source>
        <source id="normals-array">
          <float_array count="360" id="normals-array-array">-0.390649 -0.239525 -0.8888313 -0.390649 -0.239525 0.8888313 -0.3072352 -0.6668853 0.6788744 -0.3072352 -0.6668853 -0.6788744 -0.4693692 -0.5646434 0.6788744 -0.4693692 -0.5646434 -0.6788744 -0.04778412 -0.4557363 0.8888313 -0.04778412 -0.4557363 -0.8888313 -0.239525 0.390649 -0.8888313 -0.239525 0.390649 0.8888313 -0.6668853 0.3072352 0.6788744 -0.6668853 0.3072352 -0.6788744 -0.5646434 0.4693692 0.6788744 -0.5646434 0.4693692 -0.6788744 -0.4557363 0.04778412 0.8888313 -0.4557363 0.04778412 -0.8888313 0.390649 0.239525 -0.8888313 0.390649 0.239525 0.8888313 0.3072352 0.6668853 0.6788744 0.3072352 0.6668853 -0.6788744 0.4693692 0.5646434 0.6788744 0.4693692 0.5646434 -0.6788744 0.04778412 0.4557363 0.8888313 0.04778412 0.4557363 -0.8888313 0.239525 -0.390649 -0.8888313 -0.6584787 0.1129771 -0.7440712 0.009294232 0.723877 -0.6898664 0.6498873 0.4989354 -0.5733323 -0.009294232 -0.723877 -0.6898664 -0.6498873 -0.4989354 -0.5733323 0.09603354 -0.6611624 -0.7440711 0.2956437 -0.5991268 -0.7440712 -0.1701455 -0.8014615 -0.5733323 -0.6491986 -0.3203521 -0.6898665 -0.09603354 0.6611624 -0.7440711 -0.2956437 0.5991268 -0.7440712 0.723877 -0.009294232 -0.6898664 0.4989354 -0.6498873 -0.5733323 -0.6913201 -0.2148509 -0.6898664 -0.7164188 -0.1040594 -0.6898665 -0.723877 0.009294232 -0.6898664 -0.4989354 0.6498873 -0.5733323 -0.8014615 0.1701455 -0.5733323 -0.3203521 0.6491986 -0.6898665 -0.2148509 0.6913201 -0.6898664 -0.1040594 0.7164188 -0.6898665 0.1701455 0.8014615 -0.5733323 0.6491986 0.3203521 -0.6898665 0.6913201 0.2148509 -0.6898664 0.7164188 0.1040594 -0.6898665 0.8014615 -0.1701455 -0.5733323 0.3203521 -0.6491986 -0.6898665 0.4557363 -0.04778412 -0.8888313 0.2148509 -0.6913201 -0.6898664 0.1040594 -0.7164188 -0.6898665 -0.5913387 0.3109287 -0.7440711 0.6668853 -0.3072352 -0.6788744 -0.4663143 0.4784445 -0.7440712 0.5646434 -0.4693692 -0.6788744 0.6584787 -0.1129771 -0.7440712 0.5913387 -0.3109287 -0.7440711 0.4663143 -0.4784445 -0.7440712 -0.6611624 -0.09603354 -0.7440711 -0.5991268 -0.2956437 -0.7440712 -0.4784445 -0.4663143 -0.7440712 -0.3109287 -0.5913387 -0.7440711 -0.1129771 -0.6584787 -0.7440712 0.3109287 0.5913387 -0.7440711 0.1129771 0.6584787 -0.7440712 0.6611624 0.09603354 -0.7440711 0.5991268 0.2956437 -0.7440712 0.4784445 0.4663143 -0.7440712 -0.4989354 0.6498873 0.5733323 -0.723877 0.009294232 0.6898664 0.6611624 0.09603354 0.7440711 0.6584787 -0.1129771 0.7440712 0.3203521 -0.6491986 0.6898665 0.8014615 -0.1701455 0.5733323 0.4557363 -0.04778412 0.8888313 0.09603354 -0.6611624 0.7440711 -0.1129771 -0.6584787 0.7440712 -0.7164188 -0.1040594 0.6898665 -0.1701455 -0.8014615 0.5733323 -0.6491986 -0.3203521 0.6898665 -0.6913201 -0.2148509 0.6898664 0.6491986 0.3203521 0.6898665 0.1701455 0.8014615 0.5733323 -0.5913387 0.3109287 0.7440711 -0.4663143 0.4784445 0.7440712 -0.2956437 0.5991268 0.7440712 -0.09603354 0.6611624 0.7440711 0.1129771 0.6584787 0.7440712 0.3109287 0.5913387 0.7440711 0.4784445 0.4663143 0.7440712 0.5991268 0.2956437 0.7440712 0.5913387 -0.3109287 0.7440711 0.4663143 -0.4784445 0.7440712 -0.6498873 -0.4989354 0.5733323 -0.009294232 -0.723877 0.6898664 0.1040594 -0.7164188 0.6898665 0.2148509 -0.6913201 0.6898664 -0.6584787 0.1129771 0.7440712 0.5646434 -0.4693692 0.6788744 0.6668853 -0.3072352 0.6788744 0.239525 -0.390649 0.8888313 -0.6611624 -0.09603354 0.7440711 -0.5991268 -0.2956437 0.7440712 -0.8014615 0.1701455 0.5733323 -0.3203521 0.6491986 0.6898665 -0.2148509 0.6913201 0.6898664 0.4989354 -0.6498873 0.5733323 0.723877 -0.009294232 0.6898664 0.7164188 0.1040594 0.6898665 0.6913201 0.2148509 0.6898664 0.6498873 0.4989354 0.5733323 0.009294232 0.723877 0.6898664 -0.1040594 0.7164188 0.6898665 0.2956437 -0.5991268 0.7440712 -0.4784445 -0.4663143 0.7440712 -0.3109287 -0.5913387 0.7440711</float_array>
          <technique_common>
            <accessor count="120" source="#normals-array-array" stride="3">
              <param type="float" name="X"/>
              <param type="float" name="Y"/>
              <param type="float" name="Z"/>
            </accessor>
          </technique_common>
        </source>
        <source id="colors-array">
          <float_array count="360" id="colors-array-array">0.4 0.4 0.4 0.4 0.4 0.4 0.4 0.4 0.4 0.4 0.4 0.4 0.4 0.4 0.4 0.4 0.4 0.4 0.4 0.4 0.4 0.4 0.4 0.4 0.4 0.4 0.4 0.4 0.4 0.4 0.4 0.4 0.4 0.4 0.4 0.4 0.4 0.4 0.4 0.4 0.4 0.4 0.4 0.4 0.4 0.4 0.4 0.4 0.4 0.4 0.4 0.4 0.4 0.4 0.4 0.4 0.4 0.4 0.4 0.4 0.4 0.4 0.4 0.4 0.4 0.4 0.4 0.4 0.4 0.4 0.4 0.4 0.4 0.4 0.4 0.4 0.4 0.4 0.4 0.4 0.4 0.4 0.4 0.4 0.4 0.4 0.4 0.4 0.4 0.4 0.4 0.4 0.4 0.4 0.4 0.4 0.4 0.4 0.4 0.4 0.4 0.4 0.4 0.4 0.4 0.4 0.4 0.4 0.4 0.4 0.4 0.4 0.4 0.4 0.4 0.4 0.4 0.4 0.4 0.4 0.4 0.4 0.4 0.4 0.4 0.4 0.4 0.4 0.4 0.4 0.4 0.4 0.4 0.4 0.4 0.4 0.4 0.4 0.4 0.4 0.4 0.4 0.4 0.4 0.4 0.4 0.4 0.4 0.4 0.4 0.4 0.4 0.4 0.4 0.4 0.4 0.4 0.4 0.4 0.4 0.4 0.4 0.4 0.4 0.4 0.4 0.4 0.4 0.4 0.4 0.4 0.4 0.4 0.4 0.4 0.4 0.4 0.4 0.4 0.4 0.4 0.4 0.4 0.4 0.4 0.4 0.4 0.4 0.4 0.4 0.4 0.4 0.4 0.4 0.4 0.4 0.4 0.4 0.4 0.4 0.4 0.4 0.4 0.4 0.4 0.4 0.4 0.4 0.4 0.4 0.4 0.4 0.4 0.4 0.4 0.4 0.4 0.4 0.4 0.4 0.4 0.4 0.4 0.4 0.4 0.4 0.4 0.4 0.4 0.4 0.4 0.4 0.4 0.4 0.4 0.4 0.4 0.4 0.4 0.4 0.4 0.4 0.4 0.4 0.4 0.4 0.4 0.4 0.4 0.4 0.4 0.4 0.4 0.4 0.4 0.4 0.4 0.4 0.4 0.4 0.4 0.4 0.4 0.4 0.4 0.4 0.4 0.4 0.4 0.4 0.4 0.4 0.4 0.4 0.4 0.4 0.4 0.4 0.4 0.4 0.4 0.4 0.4 0.4 0.4 0.4 0.4 0.4 0.4 0.4 0.4 0.4 0.4 0.4 0.4 0.4 0.4 0.4 0.4 0.4 0.4 0.4 0.4 0.4 0.4 0.4 0.4 0.4 0.4 0.4 0.4 0.4 0.4 0.4 0.4 0.4 0.4 0.4 0.4 0.4 0.4 0.4 0.4 0.4 0.4 0.4 0.4 0.4 0.4 0.4 0.4 0.4 0.4 0.4 0.4 0.4 0.4 0.4 0.4 0.4 0.4 0.4 0.4 0.4 0.4 0.4 0.4 0.4 0.4 0.4 0.4 0.4 0.4 0.4 0.4 0.4 0.4 0.4 0.4 0.4</float_array>
          <technique_common>
            <accessor count="120" source="#colors-array-array" stride="3">
              <param type="float" name="R"/>
              <param type="float" name="G"/>
              <param type="float" name="B"/>
            </accessor>
          </technique_common>
        </source>
        <vertices id="verts-array-vertices">
          <input semantic="POSITION" source="#verts-array"/>
        </vertices>
        <triangles count="240" material="material0">
          <input offset="0" semantic="VERTEX" source="#verts-array-vertices"/>
          <input offset="1" semantic="NORMAL" source="#normals-array"/>
          <input offset="2" semantic="COLOR" source="#colors-array"/>
          <p>0 0 0 1 1 1 2 2 2 0 0 0 2 2 2 3 3 3 3 3 3 2 2 2 4 4 4 3 3 3 4 4 4 5 5 5 5 5 5 4 4 4 6 6 6 5 5 5 6 6 6 7 7 7 8 8 8 9 9 9 10 10 10 8 8 8 10 10 10 11 11 11 11 11 11 10 10 10 12 12 12 11 11 11 12 12 12 13 13 13 13 13 13 12 12 12 14 14 14 13 13 13 14 14 14 15 15 15 16 16 16 17 17 17 18 18 18 16 16 16 18 18 18 19 19 19 19 19 19 18 18 18 20 20 20 19 19 19 20 20 20 21 21 21 21 21 21 20 20 20 22 22 22 21 21 21 22 22 22 23 23 23 24 24 24 25 25 25 23 23 23 26 26 26 27 27 27 16 16 16 7 7 7 8 8 8 5 5 5 5 5 5 8 8 8 3 3 3 28 28 28 29 29 29 0 0 0 30 30 30 31 31 31 16 16 16 7 7 7 32 32 32 33 33 33 34 34 34 35 35 35 0 0 0 36 36 36 37 37 37 24 24 24 33 33 33 38 38 38 7 7 7 7 7 7 38 38 38 39 39 39 7 7 7 39 39 39 8 8 8 8 8 8 39 39 39 40 40 40 8 8 8 40 40 40 41 41 41 42 42 42 43 43 43 15 15 15 15 15 15 43 43 43 44 44 44 15 15 15 44 44 44 45 45 45 46 46 46 47 47 47 23 23 23 23 23 23 47 47 47 48 48 48 23 23 23 48 48 48 24 24 24 24 24 24 48 48 48 49 49 49 24 24 24 49 49 49 36 36 36 50 50 50 51 51 51 52 52 52 52 52 52 51 51 51 53 53 53 52 52 52 53 53 53 54 54 54 25 25 25 24 24 24 55 55 55 55 55 55 24 24 24 56 56 56 55 55 55 56 56 56 57 57 57 57 57 57 56 56 56 58 58 58 57 57 57 58 58 58 35 35 35 35 35 35 58 58 58 52 52 52 35 35 35 52 52 52 0 0 0 0 0 0 52 52 52 54 54 54 0 0 0 54 54 54 28 28 28 59 59 59 8 8 8 60 60 60 60 60 60 8 8 8 11 11 11 60 60 60 11 11 11 61 61 61 61 61 61 11 11 11 13 13 13 61 61 61 13 13 13 31 31 31 31 31 31 13 13 13 15 15 15 31 31 31 15 15 15 16 16 16 16 16 16 15 15 15 45 45 45 16 16 16 45 45 45 26 26 26 25 25 25 62 62 62 23 23 23 23 23 23 62 62 62 63 63 63 23 23 23 63 63 63 21 21 21 21 21 21 63 63 63 64 64 64 21 21 21 64 64 64 19 19 19 19 19 19 64 64 64 65 65 65 19 19 19 65 65 65 16 16 16 16 16 16 65 65 65 66 66 66 16 16 16 66 66 66 30 30 30 3 3 3 67 67 67 0 0 0 0 0 0 67 67 67 68 68 68 0 0 0 68 68 68 34 34 34 59 59 59 69 69 69 8 8 8 8 8 8 69 69 69 70 70 70 8 8 8 70 70 70 3 3 3 3 3 3 70 70 70 71 71 71 3 3 3 71 71 71 67 67 67 9 9 9 72 72 72 73 73 73 74 74 74 75 75 75 6 6 6 76 76 76 77 77 77 78 78 78 79 79 79 80 80 80 14 14 14 75 75 75 73 73 73 81 81 81 82 82 82 6 6 6 83 83 83 83 83 83 6 6 6 75 75 75 83 83 83 75 75 75 84 84 84 84 84 84 75 75 75 81 81 81 85 85 85 86 86 86 22 22 22 87 87 87 88 88 88 78 78 78 78 78 78 88 88 88 89 89 89 78 78 78 89 89 89 1 1 1 89 89 89 90 90 90 1 1 1 1 1 1 90 90 90 91 91 91 1 1 1 91 91 91 2 2 2 2 2 2 91 91 91 92 92 92 2 2 2 92 92 92 4 4 4 4 4 4 92 92 92 93 93 93 4 4 4 93 93 93 6 6 6 6 6 6 93 93 93 94 94 94 6 6 6 94 94 94 74 74 74 73 73 73 75 75 75 9 9 9 9 9 9 75 75 75 95 95 95 9 9 9 95 95 95 10 10 10 10 10 10 95 95 95 96 96 96 10 10 10 96 96 96 12 12 12 97 97 97 98 98 98 1 1 1 1 1 1 98 98 98 99 99 99 1 1 1 99 99 99 78 78 78 78 78 78 99 99 99 100 100 100 78 78 78 100 100 100 76 76 76 87 87 87 78 78 78 101 101 101 101 101 101 78 78 78 102 102 102 101 101 101 102 102 102 103 103 103 103 103 103 104 104 104 101 101 101 101 101 101 104 104 104 22 22 22 101 101 101 22 22 22 105 105 105 105 105 105 22 22 22 106 106 106 107 107 107 14 14 14 108 108 108 108 108 108 14 14 14 109 109 109 110 110 110 111 111 111 104 104 104 104 104 104 111 111 111 112 112 112 104 104 104 112 112 112 22 22 22 22 22 22 112 112 112 113 113 113 22 22 22 113 113 113 85 85 85 114 114 114 115 115 115 17 17 17 17 17 17 115 115 115 116 116 116 12 12 12 96 96 96 14 14 14 14 14 14 96 96 96 117 117 117 14 14 14 117 117 117 79 79 79 106 106 106 22 22 22 118 118 118 118 118 118 22 22 22 20 20 20 118 118 118 20 20 20 119 119 119 119 119 119 20 20 20 18 18 18 119 119 119 18 18 18 80 80 80 80 80 80 18 18 18 17 17 17 80 80 80 17 17 17 14 14 14 14 14 14 17 17 17 116 116 116 14 14 14 116 116 116 109 109 109 24 24 24 104 104 104 103 103 103 24 24 24 103 103 103 56 56 56 56 56 56 103 103 103 102 102 102 56 56 56 102 102 102 58 58 58 58 58 58 102 102 102 78 78 78 58 58 58 78 78 78 52 52 52 59 59 59 75 75 75 69 69 69 69 69 69 75 75 75 74 74 74 69 69 69 74 74 74 70 70 70 70 70 70 74 74 74 94 94 94 70 70 70 94 94 94 71 71 71 71 71 71 94 94 94 93 93 93 71 71 71 93 93 93 67 67 67 67 67 67 93 93 93 92 92 92 67 67 67 92 92 92 68 68 68 68 68 68 92 92 92 91 91 91 68 68 68 91 91 91 34 34 34 34 34 34 91 91 91 90 90 90 34 34 34 90 90 90 35 35 35 35 35 35 90 90 90 89 89 89 35 35 35 89 89 89 57 57 57 57 57 57 89 89 89 88 88 88 57 57 57 88 88 88 55 55 55 55 55 55 88 88 88 87 87 87 55 55 55 87 87 87 25 25 25 25 25 25 87 87 87 101 101 101 25 25 25 101 101 101 62 62 62 62 62 62 101 101 101 105 105 105 62 62 62 105 105 105 63 63 63 63 63 63 105 105 105 106 106 106 63 63 63 106 106 106 64 64 64 64 64 64 106 106 106 118 118 118 64 64 64 118 118 118 65 65 65 65 65 65 118 118 118 119 119 119 65 65 65 119 119 119 66 66 66 66 66 66 119 119 119 80 80 80 66 66 66 80 80 80 30 30 30 30 30 30 80 80 80 79 79 79 30 30 30 79 79 79 31 31 31 31 31 31 79 79 79 117 117 117 31 31 31 117 117 117 61 61 61 61 61 61 117 117 117 96 96 96 61 61 61 96 96 96 60 60 60 60 60 60 96 96 96 95 95 95 60 60 60 95 95 95 59 59 59 59 59 59 95 95 95 75 75 75 97 97 97 29 29 29 28 28 28 97 97 97 28 28 28 98 98 98 98 98 98 28 28 28 54 54 54 98 98 98 54 54 54 99 99 99 99 99 99 54 54 54 53 53 53 99 99 99 53 53 53 100 100 100 100 100 100 53 53 53 51 51 51 100 100 100 51 51 51 76 76 76 76 76 76 51 51 51 50 50 50 76 76 76 50 50 50 77 77 77 78 78 78 77 77 77 52 52 52 52 52 52 77 77 77 50 50 50 97 97 97 1 1 1 29 29 29 29 29 29 1 1 1 0 0 0 110 110 110 37 37 37 36 36 36 110 110 110 36 36 36 111 111 111 111 111 111 36 36 36 49 49 49 111 111 111 49 49 49 112 112 112 112 112 112 49 49 49 48 48 48 112 112 112 48 48 48 113 113 113 113 113 113 48 48 48 47 47 47 113 113 113 47 47 47 85 85 85 85 85 85 47 47 47 46 46 46 85 85 85 46 46 46 86 86 86 22 22 22 86 86 86 23 23 23 23 23 23 86 86 86 46 46 46 110 110 110 104 104 104 37 37 37 37 37 37 104 104 104 24 24 24 114 114 114 27 27 27 26 26 26 114 114 114 26 26 26 115 115 115 115 115 115 26 26 26 45 45 45 115 115 115 45 45 45 116 116 116 116 116 116 45 45 45 44 44 44 116 116 116 44 44 44 109 109 109 109 109 109 44 44 44 43 43 43 109 109 109 43 43 43 108 108 108 108 108 108 43 43 43 42 42 42 108 108 108 42 42 42 107 107 107 14 14 14 107 107 107 15 15 15 15 15 15 107 107 107 42 42 42 114 114 114 17 17 17 27 27 27 27 27 27 17 17 17 16 16 16 72 72 72 41 41 41 40 40 40 72 72 72 40 40 40 73 73 73 73 73 73 40 40 40 39 39 39 73 73 73 39 39 39 81 81 81 81 81 81 39 39 39 38 38 38 81 81 81 38 38 38 84 84 84 84 84 84 38 38 38 33 33 33 84 84 84 33 33 33 83 83 83 83 83 83 33 33 33 32 32 32 83 83 83 32 32 32 82 82 82 6 6 6 82 82 82 7 7 7 7 7 7 82 82 82 32 32 32 72 72 72 9 9 9 41 41 41 41 41 41 9 9 9 8 8 8</p>
        </triangles>
      </mesh>
    </geometry>
  </library_geometries>
  <library_materials>
    <material id="94434f56d11a44e0aafaf127c741ee9d" name="defaultmaterial">
      <instance_effect url="#3aadc60a141141b28dfc98543ac576a2"/>
    </material>
  </library_materials>
  <library_visual_scenes>
    <visual_scene id="scene">
      <node id="node0" name="node0">
        <instance_geometry url="#969a94b4f94a48b9afca77b519eaecdf">
          <bind_material>
            <technique_common>
              <instance_material symbol="material0" target="#94434f56d11a44e0aafaf127c741ee9d"/>
            </technique_common>
          </bind_material>
        </instance_geometry>
      </node>
    </visual_scene>
  </library_visual_scenes>
  <scene>
    <instance_visual_scene url="#scene"/>
  </scene>
</COLLADA>
